 <svg version="1.0" xmlns="http://www.w3.org/2000/svg" width="700.000000pt" height="700.000000pt" viewBox="0 0 700.000000 700.000000" preserveAspectRatio="xMidYMid meet">
<metadata>
Created by potrace 1.12, written by Peter Selinger 2001-2015
</metadata>
<g transform="translate(0.000000,700.000000) scale(0.100000,-0.100000)" fill="#000000" stroke="none">
<path d="M663 6597 c-3 -5 7 -20 23 -32 l29 -23 0 -329 c0 -354 -4 -387 -52
-418 -14 -9 -21 -21 -17 -25 12 -11 267 -16 284 -5 10 6 5 15 -18 34 -25 20
-34 38 -42 80 -14 76 -12 261 3 290 12 23 14 23 146 22 153 -2 190 -13 234
-66 47 -58 53 -49 52 75 -1 61 -5 113 -9 117 -3 4 -27 -13 -52 -38 l-45 -44
-155 -4 c-112 -2 -158 0 -169 9 -20 16 -22 304 -3 316 7 4 82 7 167 6 188 -3
244 -19 321 -94 26 -26 51 -44 54 -41 12 12 6 61 -9 73 -8 7 -17 27 -21 46 -3
18 -13 39 -21 45 -18 15 -691 21 -700 6z"></path>
<path d="M3047 6460 c-32 -4 -66 -15 -76 -24 -9 -9 -22 -16 -28 -16 -25 0
-115 -84 -142 -132 -40 -69 -57 -169 -42 -249 20 -113 84 -198 196 -257 46
-24 60 -26 175 -26 125 -1 125 -1 172 32 57 40 128 123 128 150 0 11 7 25 15
32 18 15 20 70 3 70 -15 -1 -53 -57 -61 -92 -7 -28 -93 -118 -112 -118 -7 0
-18 -7 -25 -15 -9 -11 -34 -15 -100 -15 -82 0 -91 2 -136 33 -71 48 -105 120
-112 235 -3 67 -1 95 11 117 11 22 12 35 4 52 -14 30 31 118 80 156 32 23 45
27 106 27 56 0 77 -5 102 -21 41 -28 75 -89 75 -133 l0 -36 -167 -2 c-142 -3
-168 -5 -168 -18 0 -13 33 -15 239 -15 280 0 275 -2 232 86 -15 30 -37 65 -49
77 -33 35 -131 90 -174 97 -72 12 -88 13 -146 5z"></path>
<path d="M5070 6459 c-43 -4 -92 -16 -115 -28 -21 -12 -45 -21 -52 -21 -18 0
-34 -36 -29 -62 3 -13 7 -35 11 -50 7 -35 31 -36 39 -2 8 31 46 84 60 84 5 0
18 8 28 17 14 12 43 18 110 21 105 5 138 -7 175 -61 30 -45 48 -139 32 -166
-10 -15 -10 -25 -1 -46 15 -32 15 -64 1 -161 -11 -73 -14 -78 -66 -130 l-53
-54 -78 0 c-72 0 -80 2 -104 28 -38 41 -50 70 -50 122 0 58 20 99 70 138 34
27 49 31 128 38 95 7 114 15 114 46 0 18 -5 19 -47 15 -79 -8 -186 -28 -218
-42 -16 -7 -41 -16 -55 -20 -43 -13 -111 -76 -130 -120 -17 -39 -17 -46 -3
-91 18 -57 51 -96 108 -129 51 -30 116 -39 209 -30 70 6 76 9 127 56 29 27 56
49 60 49 4 0 13 -17 19 -37 7 -21 19 -44 28 -50 23 -19 142 -17 142 1 0 8 -7
17 -15 20 -35 13 -47 74 -52 261 -2 99 -9 202 -15 229 -28 128 -174 196 -378
175z"></path>
<path d="M2155 6426 c-72 -40 -124 -90 -161 -154 -27 -44 -28 -54 -28 -167 0
-114 1 -122 28 -169 39 -65 82 -107 153 -146 57 -32 61 -33 184 -34 108 -1
130 2 146 17 11 9 24 17 30 17 15 0 123 118 123 134 0 8 7 19 16 26 9 9 14 26
12 47 -4 39 -18 45 -34 14 -7 -13 -17 -28 -23 -34 -6 -6 -11 -18 -11 -28 0
-19 -97 -119 -115 -119 -7 0 -18 -7 -25 -15 -18 -22 -177 -21 -210 2 -87 58
-127 132 -137 250 -4 64 -2 86 12 116 13 27 14 41 7 50 -24 29 23 117 85 160
34 23 49 27 111 27 71 0 73 -1 111 -39 40 -40 68 -108 57 -137 -4 -11 -39 -14
-176 -14 -158 0 -171 -1 -168 -17 3 -17 23 -18 239 -20 267 -3 282 0 255 52
-9 17 -16 35 -16 41 0 27 -92 112 -153 142 -59 29 -73 32 -158 32 -88 -1 -98
-3 -154 -34z"></path>
<path d="M3835 6445 c-38 -20 -85 -65 -85 -80 0 -18 -37 -48 -49 -40 -6 3 -11
28 -11 55 0 27 -4 51 -9 54 -5 3 -25 -1 -45 -9 -19 -8 -49 -15 -65 -15 -33 0
-51 -17 -28 -26 34 -13 39 -57 35 -309 l-3 -247 -27 -22 c-51 -40 -38 -46 97
-46 103 0 125 3 125 15 0 8 -9 19 -20 25 -35 19 -42 74 -39 279 4 170 6 194
22 202 9 6 17 15 17 20 0 14 53 79 64 79 5 0 18 7 28 17 12 11 37 16 77 17 53
1 63 -2 91 -29 56 -54 71 -103 77 -265 8 -202 -1 -275 -38 -313 -16 -15 -29
-33 -29 -38 0 -15 252 -7 257 8 3 7 -6 17 -19 22 -38 14 -48 69 -48 247 0 164
9 225 39 259 10 11 21 28 24 37 12 34 85 69 145 71 53 1 56 0 93 -42 52 -58
64 -118 64 -316 0 -187 -6 -226 -42 -260 -15 -13 -24 -27 -20 -31 7 -8 239 -6
246 2 3 2 -9 18 -25 35 l-29 30 -6 197 c-7 217 -19 288 -63 345 -46 61 -89 80
-189 85 -79 4 -92 2 -117 -17 -16 -11 -33 -21 -37 -21 -17 0 -63 -56 -63 -77
0 -13 -7 -26 -15 -30 -17 -6 -55 23 -55 42 0 14 -45 55 -89 79 -48 27 -195 33
-236 11z"></path>
<path d="M5943 6454 c-12 -3 -27 -12 -33 -20 -7 -8 -18 -14 -24 -14 -15 0 -56
-42 -56 -57 0 -6 -7 -16 -15 -23 -16 -13 -21 -60 -7 -60 4 0 25 23 46 50 21
28 44 50 51 50 7 0 18 7 25 15 9 11 32 15 81 15 65 0 70 -2 103 -35 56 -56 76
-140 76 -321 0 -168 -10 -216 -51 -255 -15 -14 -25 -29 -22 -33 3 -3 64 -6
135 -6 96 0 128 3 128 13 0 7 -9 18 -21 25 -41 26 -49 70 -49 262 0 169 -2
184 -25 242 -30 73 -43 89 -104 125 -39 23 -59 27 -131 29 -47 1 -95 0 -107
-2z"></path>
<path d="M1603 6433 c-12 -8 -46 -17 -77 -20 -31 -3 -56 -8 -56 -11 0 -3 12
-19 28 -35 l27 -28 0 -232 c0 -252 -7 -290 -52 -308 -15 -5 -23 -16 -21 -25 3
-14 22 -16 133 -16 131 0 155 7 116 34 -40 29 -51 77 -51 236 0 159 8 198 48
247 36 45 69 56 111 39 40 -17 41 -16 70 54 26 61 22 82 -13 82 -49 0 -182
-94 -188 -133 -2 -12 -10 -22 -18 -22 -12 0 -16 16 -18 70 -2 39 -6 73 -10 77
-4 3 -17 -1 -29 -9z"></path>
<path d="M5700 6419 c-14 -6 -36 -8 -49 -6 -14 3 -31 3 -38 0 -20 -8 -16 -30
7 -36 36 -9 42 -50 38 -301 l-3 -238 -40 -33 c-22 -19 -37 -37 -33 -41 4 -3
67 -6 140 -6 108 1 134 4 136 16 2 8 -7 17 -18 21 -44 14 -52 61 -49 286 2
145 0 211 -8 221 -7 7 -13 38 -15 68 -3 60 -17 70 -68 49z"></path>
<path d="M3520 5214 c-636 -55 -1108 -297 -1401 -718 -110 -158 -183 -341
-231 -576 -29 -144 -32 -457 -5 -605 72 -396 236 -675 543 -926 313 -256 772
-408 1230 -409 498 0 971 128 1320 358 51 33 94 64 97 69 3 4 -12 60 -33 123
-21 63 -66 203 -100 310 -128 407 -120 388 -166 373 -27 -9 -30 -14 -36 -74
-4 -35 -15 -93 -24 -129 -128 -505 -339 -756 -706 -840 -130 -30 -350 -25
-473 9 -158 44 -279 117 -396 238 -177 182 -284 426 -345 788 -28 161 -28 703
0 850 54 295 142 504 285 678 133 163 325 274 531 307 84 13 270 13 346 -1
371 -65 613 -330 713 -779 26 -115 37 -140 60 -140 24 0 36 15 49 65 6 22 20
72 32 110 12 39 30 97 40 130 27 89 61 200 105 345 30 98 30 103 -7 124 -134
77 -356 174 -493 217 -99 30 -264 67 -375 84 -101 15 -464 27 -560 19z"></path>
<path d="M710 1603 c-187 -34 -348 -125 -442 -251 -87 -116 -118 -211 -118
-367 0 -164 37 -279 122 -381 118 -141 257 -217 455 -249 112 -19 164 -19 297
0 121 17 197 40 305 93 107 54 109 57 64 183 -20 57 -39 124 -42 149 -4 32
-11 46 -23 48 -20 4 -34 -25 -48 -101 -5 -26 -26 -81 -46 -123 -64 -130 -167
-194 -314 -194 -185 0 -320 114 -383 325 -30 98 -32 398 -4 490 41 136 110
236 191 277 183 94 390 45 489 -114 19 -31 54 -131 59 -168 4 -36 36 -38 44
-3 4 15 22 75 40 133 39 120 41 138 17 147 -10 3 -46 19 -81 34 -34 16 -106
40 -158 54 -84 22 -116 25 -248 24 -83 -1 -162 -4 -176 -6z"></path>
<path d="M1835 1216 c-123 -45 -215 -126 -268 -236 -26 -55 -32 -80 -35 -158
-4 -82 -1 -101 22 -165 60 -165 206 -277 388 -297 211 -24 375 37 485 181 69
91 88 148 88 264 0 93 -3 105 -34 170 -55 113 -152 198 -277 243 -87 31 -281
30 -369 -2z m283 -35 c57 -29 97 -79 123 -151 20 -58 23 -83 22 -230 0 -147
-2 -172 -23 -230 -43 -121 -106 -170 -218 -170 -73 0 -98 9 -146 50 -74 66
-101 180 -94 394 5 123 9 150 32 207 29 70 52 98 107 129 47 26 147 26 197 1z"></path>
<path d="M2595 1230 c-4 -6 10 -27 34 -49 l41 -38 0 -268 c0 -226 3 -277 17
-323 21 -67 80 -131 149 -162 103 -45 358 -49 439 -6 79 42 155 121 155 162 0
8 6 27 14 42 10 20 15 86 18 257 4 260 6 268 89 335 l41 33 37 -37 36 -36 3
-257 c4 -363 -11 -459 -76 -484 -13 -5 -22 -14 -20 -20 5 -16 401 -16 406 0 2
6 -7 15 -20 20 -37 14 -58 54 -68 134 -14 104 -12 241 2 255 19 19 85 14 130
-9 74 -38 111 -94 148 -224 13 -44 34 -104 47 -132 l24 -53 137 -1 c428 -3
595 0 605 10 7 7 3 13 -15 20 -14 5 -36 25 -49 43 -24 33 -24 34 -27 370 l-3
337 36 32 c19 18 35 38 35 46 0 16 -41 18 -57 2 -11 -11 -224 -7 -279 6 -50
11 -52 -11 -5 -51 l41 -36 0 -323 c0 -205 -4 -334 -11 -352 -30 -80 -104 -99
-156 -39 -29 32 -37 47 -101 187 -30 66 -94 149 -116 149 -6 0 -24 11 -41 24
l-30 24 28 11 c16 6 35 11 43 11 31 0 110 50 142 88 52 66 41 153 -28 210 -31
26 -118 59 -176 67 -63 8 -556 27 -639 25 -90 -3 -239 -2 -274 2 -50 5 -49
-15 2 -48 59 -39 76 -63 88 -131 14 -76 6 -458 -10 -493 -23 -49 -37 -68 -66
-92 -74 -60 -211 -77 -294 -35 -111 55 -134 143 -129 494 l3 225 39 34 c30 26
37 37 28 46 -9 9 -21 8 -50 -1 -39 -13 -230 -10 -283 4 -17 4 -29 2 -34 -5z
m1484 -66 c17 -4 50 -23 74 -44 42 -38 42 -38 42 -108 0 -61 -3 -74 -25 -98
-37 -39 -102 -65 -184 -71 -105 -8 -106 -6 -106 166 0 93 4 141 12 149 13 13
133 17 187 6z"></path>
<path d="M5040 1226 c0 -8 16 -28 36 -44 l37 -30 4 -204 c3 -112 1 -270 -4
-352 l-9 -149 -39 -34 c-21 -18 -36 -36 -32 -39 3 -3 182 -5 399 -5 l393 1 23
26 c12 14 22 35 22 47 0 28 43 152 60 172 13 16 7 45 -10 45 -11 0 -35 -23
-78 -75 -36 -43 -112 -100 -167 -125 -37 -16 -77 -23 -151 -27 l-101 -6 -34
31 -34 30 0 154 0 153 79 3 c127 5 249 -48 258 -111 2 -14 10 -22 21 -22 17 0
19 11 19 155 0 135 -2 155 -16 158 -11 2 -20 -7 -27 -26 -21 -60 -126 -105
-249 -106 -69 -1 -75 1 -87 24 -18 35 -18 260 0 285 13 16 25 17 123 12 152
-8 264 -56 337 -143 16 -19 35 -34 43 -34 19 0 19 54 0 69 -8 7 -18 26 -21 43
-4 16 -16 50 -26 74 l-20 44 -344 0 c-218 0 -346 4 -350 10 -10 16 -55 12 -55
-4z"></path>
<path d="M5955 1230 c-3 -5 12 -28 34 -49 l41 -40 0 -303 c-1 -167 -5 -323
-10 -348 -6 -34 -18 -53 -46 -78 -20 -17 -35 -35 -31 -38 10 -11 388 -7 399 4
7 7 0 15 -19 23 -50 25 -66 76 -71 231 -3 101 -1 142 8 153 16 19 71 19 118
-1 77 -32 121 -97 162 -239 13 -44 34 -101 46 -127 l24 -47 147 -3 c82 -2 158
0 171 4 28 10 20 28 -13 28 -14 0 -35 14 -55 36 -29 34 -44 61 -101 189 -33
73 -66 112 -126 151 -30 19 -51 39 -48 44 3 5 22 12 43 16 109 20 188 99 183
184 -9 157 -141 200 -612 200 -108 0 -180 4 -184 10 -8 13 -52 13 -60 0z m488
-66 c23 -4 54 -21 80 -44 41 -37 42 -39 42 -103 0 -79 -19 -111 -87 -144 -56
-27 -175 -41 -206 -24 -21 11 -22 18 -22 161 0 109 3 150 13 153 18 8 136 8
180 1z"></path>
</g>
</svg>