<?xml version="1.0" standalone="no"?>
<!DOCTYPE svg PUBLIC "-//W3C//DTD SVG 20010904//EN"
 "http://www.w3.org/TR/2001/REC-SVG-20010904/DTD/svg10.dtd">
<svg version="1.0" xmlns="http://www.w3.org/2000/svg"
 width="512.000000pt" height="512.000000pt" viewBox="0 0 512.000000 512.000000"
 preserveAspectRatio="xMidYMid meet">
<metadata>
Created by potrace 1.16, written by Peter Selinger 2001-2019
</metadata>
<g transform="translate(0.000000,512.000000) scale(0.100000,-0.100000)"
fill="#000000" stroke="none">
<path d="M600 3190 c-55 -13 -196 -75 -250 -110 -49 -31 -110 -97 -110 -119 0
-5 -14 -26 -30 -44 -17 -19 -30 -44 -30 -56 0 -12 -7 -24 -15 -27 -24 -10 -8
-22 50 -39 30 -8 55 -18 55 -21 0 -5 -42 1 -81 12 -35 10 -52 -96 -24 -146 8
-14 15 -45 15 -70 0 -63 17 -90 80 -127 l54 -33 -64 -1 -65 0 44 -37 c24 -20
68 -58 96 -83 29 -26 77 -55 106 -66 30 -11 89 -32 132 -47 42 -16 77 -33 77
-38 0 -10 -143 -3 -200 9 -38 8 -13 -14 35 -31 22 -7 39 -18 38 -24 -1 -6 19
-18 45 -28 26 -9 103 -43 172 -75 126 -57 321 -115 475 -139 39 -7 85 -16 104
-22 47 -14 151 -26 145 -16 -3 4 -11 8 -18 8 -24 0 -168 51 -246 87 -86 39
-116 64 -139 114 -9 19 -67 84 -128 144 l-113 108 0 -39 c-1 -33 -2 -36 -11
-20 -6 10 -9 35 -5 55 4 27 0 44 -14 66 l-20 30 0 -25 c-1 -17 -7 -6 -19 30
-23 69 -52 130 -63 130 -4 0 -8 -4 -8 -10 0 -5 -5 -10 -10 -10 -7 0 -7 6 0 19
16 30 12 82 -11 157 -17 55 -19 75 -10 103 5 19 7 39 4 44 -8 13 -7 128 1 147
30 72 84 235 80 242 -6 10 -77 9 -124 -2z m-146 -231 c-58 -335 95 -625 487
-921 53 -40 105 -78 115 -84 11 -7 16 -15 12 -19 -10 -10 -250 151 -338 227
-140 120 -250 293 -291 459 -18 69 -20 102 -16 203 4 105 31 246 44 233 2 -2
-4 -46 -13 -98z"/>
<path d="M70 3070 l0 -40 90 0 c91 0 91 0 141 40 l51 40 -141 0 -141 0 0 -40z"/>
<path d="M716 3086 c-3 -13 -9 -31 -12 -40 -6 -15 184 -16 2180 -16 l2186 0 0
40 0 40 -2174 0 -2174 0 -6 -24z"/>
<path d="M70 1930 l0 -40 423 1 c418 0 421 1 372 18 -28 10 -69 28 -92 40 -41
20 -55 21 -373 21 l-330 0 0 -40z"/>
<path d="M1195 1929 l79 -39 1898 0 1898 0 0 40 0 40 -1977 -1 -1978 0 80 -40z"/>
</g>
</svg>
